<svg xmlns="http://www.w3.org/2000/svg" viewBox="0 0 120 120">
  <!-- Can body -->
  <ellipse cx="60" cy="85" rx="42" ry="10" fill="#F5924E"/>
  <rect x="18" y="42" width="84" height="43" rx="4" fill="#E8651A"/>
  <ellipse cx="60" cy="42" rx="42" ry="10" fill="#F5924E"/>
  <!-- Label band -->
  <rect x="18" y="52" width="84" height="23" fill="#FAF5EE" opacity=".85"/>
  <!-- Fish on label -->
  <ellipse cx="52" cy="63" rx="14" ry="8" fill="#F5924E"/>
  <polygon points="66,63 74,56 74,70" fill="#F5924E"/>
  <circle cx="45" cy="61" r="2" fill="#3D2314"/>
  <!-- Waves on label -->
  <path d="M22 68 Q30 65 38 68 Q46 71 54 68 Q62 65 70 68 Q78 71 86 68 Q94 65 98 68" stroke="#E8651A" stroke-width="1.5" fill="none"/>
  <!-- Lid rim -->
  <ellipse cx="60" cy="42" rx="42" ry="10" fill="none" stroke="#3D2314" stroke-width="2"/>
  <!-- Pull tab -->
  <rect x="72" y="36" width="18" height="5" rx="2.5" fill="#C8941A"/>
  <circle cx="90" cy="38" r="3" fill="#C8941A" stroke="#3D2314" stroke-width="1"/>
</svg>
