<svg xmlns="http://www.w3.org/2000/svg" viewBox="0 0 120 120">
  <!-- Ball 1 (large, front center) -->
  <circle cx="60" cy="72" r="26" fill="#E8651A"/>
  <circle cx="60" cy="72" r="26" fill="none" stroke="#C87030" stroke-width="2"/>
  <!-- Crinkle lines on ball 1 -->
  <path d="M38 60 Q50 55 62 60 Q74 65 86 60" stroke="#C87030" stroke-width="1.5" fill="none" opacity=".7"/>
  <path d="M38 72 Q50 67 62 72 Q74 77 82 72" stroke="#C87030" stroke-width="1.5" fill="none" opacity=".7"/>
  <path d="M42 84 Q54 79 66 84 Q74 87 80 84" stroke="#C87030" stroke-width="1.5" fill="none" opacity=".7"/>
  <!-- Ball 2 (back left) -->
  <circle cx="30" cy="55" r="18" fill="#8FA882"/>
  <circle cx="30" cy="55" r="18" fill="none" stroke="#6B8C5E" stroke-width="2"/>
  <path d="M15 48 Q25 44 35 48 Q41 50 45 48" stroke="#6B8C5E" stroke-width="1.5" fill="none" opacity=".7"/>
  <path d="M13 55 Q22 51 31 55 Q38 58 45 55" stroke="#6B8C5E" stroke-width="1.5" fill="none" opacity=".7"/>
  <!-- Ball 3 (back right) -->
  <circle cx="90" cy="52" r="18" fill="#C8941A"/>
  <circle cx="90" cy="52" r="18" fill="none" stroke="#A07030" stroke-width="2"/>
  <path d="M75 45 Q83 41 91 45 Q98 48 104 45" stroke="#A07030" stroke-width="1.5" fill="none" opacity=".7"/>
  <path d="M73 52 Q81 48 89 52 Q97 55 106 52" stroke="#A07030" stroke-width="1.5" fill="none" opacity=".7"/>
  <!-- Catnip herb sprigs -->
  <line x1="60" y1="46" x2="60" y2="36" stroke="#8FA882" stroke-width="2"/>
  <ellipse cx="60" cy="33" rx="4" ry="6" fill="#8FA882"/>
  <ellipse cx="55" cy="38" rx="3" ry="5" fill="#6B8C5E" transform="rotate(-25 55 38)"/>
  <ellipse cx="65" cy="38" rx="3" ry="5" fill="#6B8C5E" transform="rotate(25 65 38)"/>
</svg>
