<svg xmlns="http://www.w3.org/2000/svg" viewBox="0 0 120 120">
  <!-- Raincoat body -->
  <path d="M28 52 L22 100 Q60 108 98 100 L92 52 L78 42 Q70 78 60 78 Q50 78 42 42 Z" fill="#C8941A"/>
  <!-- Coat highlight -->
  <path d="M28 52 L22 100 Q40 104 60 104 L60 78 Q50 78 42 42 Z" fill="#E8B84B" opacity=".4"/>
  <!-- Sleeves -->
  <path d="M28 52 L14 75 Q12 83 22 84 L34 63 Z" fill="#C8941A"/>
  <path d="M92 52 L106 75 Q108 83 98 84 L86 63 Z" fill="#C8941A"/>
  <!-- Hood -->
  <path d="M40 46 Q40 14 60 14 Q80 14 80 46 L72 50 Q68 24 60 24 Q52 24 48 50 Z" fill="#E8B84B"/>
  <!-- Hood inner -->
  <path d="M48 50 Q48 26 60 26 Q72 26 72 50 Q66 42 60 42 Q54 42 48 50 Z" fill="#C8941A"/>
  <!-- Buttons -->
  <circle cx="60" cy="60" r="4" fill="#3D2314"/>
  <circle cx="60" cy="60" r="2" fill="#6B3C22"/>
  <circle cx="60" cy="74" r="4" fill="#3D2314"/>
  <circle cx="60" cy="74" r="2" fill="#6B3C22"/>
  <!-- Reflective strip -->
  <path d="M26 84 Q60 87 94 84" stroke="#FAF5EE" stroke-width="4" fill="none" opacity=".8" stroke-linecap="round"/>
  <!-- Rain drops -->
  <ellipse cx="18" cy="32" rx="2" ry="4" fill="#B8D8E8" opacity=".7"/>
  <ellipse cx="30" cy="22" rx="2" ry="4" fill="#B8D8E8" opacity=".7"/>
  <ellipse cx="42" cy="30" rx="2" ry="4" fill="#B8D8E8" opacity=".5"/>
  <ellipse cx="90" cy="25" rx="2" ry="4" fill="#B8D8E8" opacity=".7"/>
  <ellipse cx="102" cy="34" rx="2" ry="4" fill="#B8D8E8" opacity=".5"/>
</svg>
