<svg xmlns="http://www.w3.org/2000/svg" viewBox="0 0 120 120">
  <!-- Hoodie body -->
  <path d="M25 55 L20 100 Q60 108 100 100 L95 55 L80 45 Q70 85 60 85 Q50 85 40 45 Z" fill="#8FA882"/>
  <!-- Sleeves -->
  <path d="M25 55 L12 78 Q10 85 18 87 L32 68 Z" fill="#8FA882"/>
  <path d="M95 55 L108 78 Q110 85 102 87 L88 68 Z" fill="#8FA882"/>
  <!-- Hood -->
  <path d="M38 48 Q38 18 60 18 Q82 18 82 48 L75 52 Q70 30 60 30 Q50 30 45 52 Z" fill="#6B8C5E"/>
  <!-- Hood inner -->
  <path d="M45 52 Q45 28 60 28 Q75 28 75 52 Q68 44 60 44 Q52 44 45 52 Z" fill="#8FA882"/>
  <!-- Kangaroo pocket -->
  <path d="M42 75 Q42 88 60 88 Q78 88 78 75 Q70 80 60 80 Q50 80 42 75 Z" fill="#6B8C5E"/>
  <!-- Cuff details -->
  <path d="M12 80 Q10 87 18 87" stroke="#6B8C5E" stroke-width="3" fill="none"/>
  <path d="M108 80 Q110 87 102 87" stroke="#6B8C5E" stroke-width="3" fill="none"/>
  <!-- Star pattern -->


</svg>
